<svg width="22" height="22" viewBox="0 0 22 22" fill="none" xmlns="http://www.w3.org/2000/svg">
<path d="M16 1H6C3.23858 1 1 3.23858 1 6V16C1 18.7614 3.23858 21 6 21H16C18.7614 21 21 18.7614 21 16V6C21 3.23858 18.7614 1 16 1Z" stroke="white" stroke-width="2" stroke-linecap="round" stroke-linejoin="round"/>
<path d="M15 10.37C15.1234 11.2022 14.9813 12.0522 14.5938 12.799C14.2063 13.5458 13.5931 14.1514 12.8416 14.5297C12.0901 14.9079 11.2384 15.0396 10.4078 14.9059C9.57712 14.7723 8.80976 14.3801 8.21484 13.7852C7.61991 13.1902 7.22773 12.4229 7.09406 11.5922C6.9604 10.7615 7.09206 9.90989 7.47032 9.15837C7.84858 8.40685 8.45418 7.79374 9.20098 7.40624C9.94778 7.01874 10.7978 6.87658 11.63 7C12.4789 7.12588 13.2648 7.52146 13.8717 8.1283C14.4785 8.73515 14.8741 9.52107 15 10.37Z" stroke="white" stroke-width="2" stroke-linecap="round" stroke-linejoin="round"/>
<path d="M16.9946 5.42666C17.01 5.53069 16.9922 5.63694 16.9438 5.73028C16.8954 5.82363 16.8187 5.89933 16.7248 5.94662C16.6309 5.9939 16.5244 6.01036 16.4206 5.99365C16.3167 5.97694 16.2208 5.92792 16.1464 5.85355C16.0721 5.77919 16.0231 5.68327 16.0064 5.57943C15.9896 5.4756 16.0061 5.36915 16.0534 5.27521C16.1007 5.18127 16.1764 5.10463 16.2697 5.05619C16.3631 5.00775 16.4693 4.98998 16.5733 5.00541C16.6795 5.02114 16.7777 5.07059 16.8536 5.14645C16.9294 5.2223 16.9789 5.32054 16.9946 5.42666Z" stroke="white" stroke-width="2" stroke-linecap="round" stroke-linejoin="round"/>
</svg>
