<svg width="40" height="40" viewBox="0 0 40 40" fill="none" xmlns="http://www.w3.org/2000/svg">
<circle cx="20" cy="20" r="20" fill="url(#paint0_linear_25_13)"/>
<path d="M25.5 10H15.5C12.7386 10 10.5 12.2386 10.5 15V25C10.5 27.7614 12.7386 30 15.5 30H25.5C28.2614 30 30.5 27.7614 30.5 25V15C30.5 12.2386 28.2614 10 25.5 10Z" stroke="white" stroke-width="2" stroke-linecap="round" stroke-linejoin="round"/>
<path d="M24.4997 19.3698C24.6231 20.2021 24.481 21.052 24.0935 21.7988C23.706 22.5456 23.0929 23.1512 22.3413 23.5295C21.5898 23.9077 20.7382 24.0394 19.9075 23.9057C19.0768 23.7721 18.3095 23.3799 17.7145 22.785C17.1196 22.1901 16.7274 21.4227 16.5938 20.592C16.4601 19.7614 16.5918 18.9097 16.97 18.1582C17.3483 17.4067 17.9539 16.7936 18.7007 16.4061C19.4475 16.0186 20.2975 15.8764 21.1297 15.9998C21.9786 16.1257 22.7646 16.5213 23.3714 17.1281C23.9782 17.735 24.3738 18.5209 24.4997 19.3698Z" stroke="white" stroke-width="2" stroke-linecap="round" stroke-linejoin="round"/>
<path d="M26.4946 14.4267C26.51 14.5307 26.4922 14.6369 26.4438 14.7303C26.3954 14.8236 26.3187 14.8993 26.2248 14.9466C26.1309 14.9939 26.0244 15.0104 25.9206 14.9936C25.8167 14.9769 25.7208 14.9279 25.6464 14.8536C25.5721 14.7792 25.5231 14.6833 25.5064 14.5794C25.4896 14.4756 25.5061 14.3691 25.5534 14.2752C25.6007 14.1813 25.6764 14.1046 25.7697 14.0562C25.8631 14.0078 25.9693 13.99 26.0733 14.0054C26.1795 14.0211 26.2777 14.0706 26.3536 14.1464C26.4294 14.2223 26.4789 14.3205 26.4946 14.4267Z" stroke="white" stroke-width="2" stroke-linecap="round" stroke-linejoin="round"/>
<defs>
<linearGradient id="paint0_linear_25_13" x1="20" y1="0" x2="20" y2="40" gradientUnits="userSpaceOnUse">
<stop stop-color="#FF8EB4"/>
<stop offset="1" stop-color="#EE5ED7"/>
</linearGradient>
</defs>
</svg>
