<svg width="21" height="18" viewBox="0 0 21 18" fill="none" xmlns="http://www.w3.org/2000/svg">
<path d="M18.4708 0.890747L18.4711 0.890624C18.6359 0.821121 18.8163 0.797077 18.9935 0.820999C19.1707 0.84492 19.3383 0.915931 19.4788 1.02663C19.6192 1.13733 19.7274 1.28368 19.7921 1.45041C19.8567 1.61711 19.8755 1.7981 19.8465 1.97453C19.8464 1.97456 19.8464 1.97459 19.8464 1.97462L17.5765 15.7315L17.5764 15.7319C17.4122 16.7312 16.3209 17.2905 15.4168 16.8008C14.4031 16.2491 12.9057 15.4055 11.5603 14.5264L11.5601 14.5263C10.888 14.0874 10.2469 13.6357 9.71975 13.2021C9.37249 12.9159 9.04811 12.6174 8.79752 12.3174L8.66645 12.1605L8.463 12.1404C7.50052 12.0451 6.27099 11.7036 5.10867 11.3195C3.84587 10.8958 2.5986 10.4272 1.36924 9.91445L1.36844 9.91412C0.55128 9.575 0.561936 8.43143 1.37081 8.09075C1.37082 8.09074 1.37083 8.09074 1.37085 8.09073L18.4708 0.890747ZM2.89978 8.5311L3.02735 9.16293L2.91137 9.45708C3.73881 9.78334 4.57491 10.0872 5.41876 10.3683L5.42019 10.3688C6.55044 10.7415 7.60885 11.0257 8.39127 11.1259L8.63476 11.1571L8.80834 10.9835L13.1452 6.64661C13.1453 6.64657 13.1453 6.64652 13.1453 6.64648C13.2392 6.55279 13.3664 6.50018 13.499 6.50023C13.6316 6.50027 13.7588 6.55302 13.8526 6.64686C13.9464 6.7407 13.999 6.86795 13.999 7.00061C13.9989 7.13327 13.9462 7.26048 13.8524 7.35425L13.8523 7.35433L9.89127 11.3143L9.52711 11.6784L9.90174 12.0317C10.0479 12.1695 10.1989 12.3021 10.3545 12.4292L10.3545 12.4292L10.3579 12.4319C10.9187 12.8819 11.5029 13.302 12.108 13.6906C13.406 14.539 14.8577 15.3589 15.861 15.9042L16.4787 16.24L16.5931 15.5463L18.7111 2.70631L18.8585 1.81269L18.0238 2.1641L2.89978 8.5311Z" fill="white" stroke="white"/>
</svg>
