<svg width="40" height="40" viewBox="0 0 40 40" fill="none" xmlns="http://www.w3.org/2000/svg">
<circle cx="20" cy="20" r="20" fill="url(#paint0_linear_25_14)"/>
<path d="M26.4708 12.8907L26.4711 12.8906C26.6359 12.8211 26.8163 12.7971 26.9935 12.821C27.1707 12.8449 27.3383 12.9159 27.4788 13.0266C27.6192 13.1373 27.7274 13.2837 27.7921 13.4504C27.8567 13.6171 27.8755 13.7981 27.8465 13.9745C27.8464 13.9746 27.8464 13.9746 27.8464 13.9746L25.5765 27.7315L25.5764 27.7319C25.4122 28.7312 24.3209 29.2905 23.4168 28.8008C22.4031 28.2491 20.9057 27.4055 19.5603 26.5264L19.5601 26.5263C18.888 26.0874 18.2469 25.6357 17.7198 25.2021C17.3725 24.9159 17.0481 24.6174 16.7975 24.3174L16.6665 24.1605L16.463 24.1404C15.5005 24.0451 14.271 23.7036 13.1086 23.3195C11.8458 22.8958 10.5986 22.4272 9.36924 21.9145L9.36844 21.9141C8.55128 21.575 8.56194 20.4314 9.37081 20.0907C9.37082 20.0907 9.37083 20.0907 9.37085 20.0907L26.4708 12.8907ZM10.8998 20.5311L11.0274 21.1629L10.9114 21.4571C11.7388 21.7833 12.5749 22.0872 13.4188 22.3683L13.4202 22.3688C14.5504 22.7415 15.6088 23.0257 16.3913 23.1259L16.6348 23.1571L16.8083 22.9835L21.1452 18.6466C21.1453 18.6466 21.1453 18.6465 21.1453 18.6465C21.2392 18.5528 21.3664 18.5002 21.499 18.5002C21.6316 18.5003 21.7588 18.553 21.8526 18.6469C21.9464 18.7407 21.999 18.8679 21.999 19.0006C21.9989 19.1333 21.9462 19.2605 21.8524 19.3543L21.8523 19.3543L17.8913 23.3143L17.5271 23.6784L17.9017 24.0317C18.0479 24.1695 18.1989 24.3021 18.3545 24.4292L18.3545 24.4292L18.3579 24.4319C18.9187 24.8819 19.5029 25.3021 20.108 25.6906C21.406 26.539 22.8577 27.3589 23.861 27.9042L24.4787 28.24L24.5931 27.5463L26.7111 14.7063L26.8585 13.8127L26.0238 14.1641L10.8998 20.5311Z" fill="white" stroke="white"/>
<defs>
<linearGradient id="paint0_linear_25_14" x1="20" y1="0" x2="20" y2="40" gradientUnits="userSpaceOnUse">
<stop stop-color="#53BFF3"/>
<stop offset="1" stop-color="#3DA7DB"/>
</linearGradient>
</defs>
</svg>
