<svg width="25" height="24" viewBox="0 0 25 24" fill="none" xmlns="http://www.w3.org/2000/svg">
<path fill-rule="evenodd" clip-rule="evenodd" d="M2.5 4C2.5 3.44772 2.94772 3 3.5 3H5.5C6.0172 3 6.44907 3.39439 6.49589 3.90946L6.68594 6H21.5C21.7899 6 22.0655 6.1258 22.2555 6.3448C22.4454 6.5638 22.5309 6.85444 22.49 7.14142L21.7181 12.5443C21.5184 13.9423 20.3707 15.0118 18.962 15.1124L8.52793 15.8577C6.89785 15.9741 5.47446 14.7644 5.32651 13.1369L4.77683 7.09054L4.58679 5H3.5C2.94772 5 2.5 4.55228 2.5 4ZM6.86776 8L7.31829 12.9559C7.36761 13.4984 7.84207 13.9016 8.38543 13.8628L18.8195 13.1175C19.2891 13.0839 19.6716 12.7275 19.7382 12.2614L20.347 8H6.86776ZM7.5 19C7.5 17.8954 8.39543 17 9.5 17C10.6046 17 11.5 17.8954 11.5 19C11.5 20.1046 10.6046 21 9.5 21C8.39543 21 7.5 20.1046 7.5 19ZM17.5 17C16.3954 17 15.5 17.8954 15.5 19C15.5 20.1046 16.3954 21 17.5 21C18.6046 21 19.5 20.1046 19.5 19C19.5 17.8954 18.6046 17 17.5 17Z" fill="#8C8C8C"/>
</svg>
