<svg width="70" height="36" viewBox="0 0 70 36" fill="none" xmlns="http://www.w3.org/2000/svg">
<path d="M12.968 14.8766C12.5512 14.8766 12.2286 14.7597 12 14.5259C11.7849 14.2783 11.6773 13.9413 11.6773 13.5148V1.3618C11.6773 0.921623 11.7849 0.584612 12 0.350767C12.2286 0.116922 12.5512 0 12.968 0C13.3848 0 13.7008 0.116922 13.9159 0.350767C14.1444 0.584612 14.2587 0.921623 14.2587 1.3618V6.23127H21.5794V1.3618C21.5794 0.921623 21.6869 0.584612 21.902 0.350767C22.1306 0.116922 22.4533 0 22.87 0C23.2868 0 23.6028 0.116922 23.8179 0.350767C24.0465 0.584612 24.1607 0.921623 24.1607 1.3618V13.5148C24.1607 13.9413 24.0465 14.2783 23.8179 14.5259C23.6028 14.7597 23.2868 14.8766 22.87 14.8766C22.4533 14.8766 22.1306 14.7597 21.902 14.5259C21.6869 14.2783 21.5794 13.9413 21.5794 13.5148V8.43903H14.2587V13.5148C14.2587 13.9413 14.1512 14.2783 13.9361 14.5259C13.7209 14.7597 13.3983 14.8766 12.968 14.8766Z" fill="#FFB5C6"/>
<path d="M30.9003 14.9179C29.8785 14.9179 28.9912 14.7047 28.2383 14.2783C27.4853 13.8518 26.9005 13.2466 26.4837 12.4625C26.0669 11.6647 25.8585 10.7293 25.8585 9.6564C25.8585 8.84482 25.9728 8.12265 26.2014 7.4899C26.4434 6.84339 26.7862 6.29317 27.2299 5.83923C27.6736 5.37154 28.2046 5.02078 28.8231 4.78693C29.4416 4.53933 30.134 4.41553 30.9003 4.41553C31.9221 4.41553 32.8094 4.62874 33.5623 5.05517C34.3153 5.48159 34.9001 6.08683 35.3169 6.8709C35.7337 7.65497 35.9421 8.58347 35.9421 9.6564C35.9421 10.468 35.8211 11.197 35.5791 11.8435C35.3505 12.49 35.0144 13.0471 34.5707 13.5148C34.127 13.9688 33.596 14.3195 32.9775 14.5671C32.359 14.801 31.6666 14.9179 30.9003 14.9179ZM30.9003 12.9577C31.3978 12.9577 31.8347 12.8339 32.2112 12.5863C32.5876 12.3387 32.8767 11.9742 33.0783 11.4928C33.2935 10.9976 33.401 10.3854 33.401 9.6564C33.401 8.55595 33.1725 7.7375 32.7153 7.20103C32.2582 6.65081 31.6532 6.3757 30.9003 6.3757C30.4028 6.3757 29.9659 6.4995 29.5894 6.7471C29.213 6.98094 28.9172 7.34547 28.7021 7.84067C28.5004 8.32211 28.3996 8.92735 28.3996 9.6564C28.3996 10.7431 28.6281 11.5684 29.0853 12.1324C29.5424 12.6826 30.1474 12.9577 30.9003 12.9577Z" fill="#FFB5C6"/>
<path d="M39.2731 14.8766C38.8697 14.8766 38.5605 14.7666 38.3454 14.5465C38.1303 14.3127 38.0227 13.9825 38.0227 13.5561V5.7567C38.0227 5.33028 38.1303 5.00702 38.3454 4.78693C38.5605 4.56684 38.863 4.4568 39.2529 4.4568C39.6428 4.4568 39.9453 4.56684 40.1604 4.78693C40.3755 5.00702 40.4831 5.33028 40.4831 5.7567V7.15977L40.2613 6.64393C40.557 5.91489 41.0142 5.36467 41.6326 4.99327C42.2645 4.60811 42.9771 4.41553 43.7703 4.41553C44.5636 4.41553 45.2156 4.56684 45.7265 4.86947C46.2374 5.17209 46.6206 5.6329 46.876 6.2519C47.1315 6.85714 47.2592 7.62746 47.2592 8.56283V13.5561C47.2592 13.9825 47.1517 14.3127 46.9366 14.5465C46.7214 14.7666 46.4122 14.8766 46.0089 14.8766C45.6055 14.8766 45.2896 14.7666 45.061 14.5465C44.8459 14.3127 44.7383 13.9825 44.7383 13.5561V8.68663C44.7383 7.90257 44.5905 7.33171 44.2947 6.97407C44.0123 6.61642 43.5687 6.4376 42.9636 6.4376C42.2242 6.4376 41.6326 6.67832 41.1889 7.15977C40.7587 7.62745 40.5436 8.25333 40.5436 9.0374V13.5561C40.5436 14.4365 40.1201 14.8766 39.2731 14.8766Z" fill="#FFB5C6"/>
<path d="M54.6799 14.9179C53.564 14.9179 52.6027 14.7047 51.796 14.2783C50.9893 13.8518 50.3642 13.2466 49.9205 12.4625C49.4902 11.6785 49.2751 10.75 49.2751 9.67703C49.2751 8.63161 49.4835 7.71687 49.9003 6.9328C50.3305 6.14873 50.9154 5.53661 51.6548 5.09643C52.4077 4.6425 53.2615 4.41553 54.2161 4.41553C54.9152 4.41553 55.5404 4.53246 56.0916 4.7663C56.6563 5.00014 57.1336 5.33715 57.5234 5.77733C57.9268 6.21751 58.2293 6.75398 58.431 7.38673C58.6461 8.00573 58.7536 8.70727 58.7536 9.49133C58.7536 9.73893 58.6662 9.93151 58.4915 10.0691C58.3301 10.1929 58.0948 10.2548 57.7856 10.2548H51.312V8.76917H56.9789L56.6563 9.07867C56.6563 8.44591 56.5622 7.91632 56.3739 7.4899C56.1991 7.06348 55.937 6.74022 55.5874 6.52013C55.2513 6.28629 54.8278 6.16937 54.3169 6.16937C53.7522 6.16937 53.2682 6.30692 52.8649 6.58203C52.475 6.84339 52.1725 7.22167 51.9574 7.71687C51.7557 8.19831 51.6548 8.77604 51.6548 9.45007V9.5945C51.6548 10.7225 51.9103 11.5684 52.4212 12.1324C52.9455 12.6826 53.7119 12.9577 54.7202 12.9577C55.0698 12.9577 55.4597 12.9165 55.8899 12.8339C56.3336 12.7376 56.7504 12.5795 57.1403 12.3594C57.4226 12.1943 57.6713 12.1255 57.8865 12.153C58.1016 12.1668 58.2696 12.2424 58.3906 12.38C58.5251 12.5176 58.6057 12.6895 58.6326 12.8958C58.6595 13.0884 58.6192 13.2879 58.5116 13.4942C58.4175 13.7005 58.2495 13.8794 58.0075 14.0307C57.5369 14.3333 56.9924 14.5603 56.3739 14.7116C55.7689 14.8491 55.2042 14.9179 54.6799 14.9179Z" fill="#FFB5C6"/>
<path d="M63.0932 18.5906C62.7974 18.5906 62.5554 18.5081 62.3672 18.343C62.1789 18.1917 62.0647 17.9854 62.0243 17.724C61.9974 17.4627 62.0445 17.1876 62.1655 16.8987L63.5368 13.7831V14.856L59.8664 6.16937C59.7454 5.86674 59.7051 5.58475 59.7454 5.3234C59.7858 5.06204 59.9068 4.85571 60.1084 4.7044C60.3236 4.53933 60.6126 4.4568 60.9756 4.4568C61.2849 4.4568 61.5336 4.53245 61.7218 4.68377C61.91 4.82132 62.0781 5.08956 62.226 5.48847L64.9485 12.4419H64.3435L67.1266 5.46783C67.2745 5.08268 67.4492 4.82132 67.6509 4.68377C67.8526 4.53245 68.1215 4.4568 68.4576 4.4568C68.7534 4.4568 68.9887 4.53933 69.1634 4.7044C69.3382 4.85571 69.4458 5.06204 69.4861 5.3234C69.5265 5.571 69.4794 5.84611 69.3449 6.14873L64.4444 17.6002C64.2696 17.9854 64.0814 18.2467 63.8797 18.3843C63.678 18.5219 63.4158 18.5906 63.0932 18.5906Z" fill="#FFB5C6"/>
<path d="M10.8922 32.1209C10.4485 32.1209 10.1057 32.004 9.86365 31.7702C9.63509 31.5226 9.52081 31.1718 9.52081 30.7179V18.9775C9.52081 18.5236 9.63509 18.1797 9.86365 17.9458C10.1057 17.6982 10.4485 17.5744 10.8922 17.5744H15.7323C16.7272 17.5744 17.5742 17.7257 18.2733 18.0284C18.9724 18.331 19.5035 18.7643 19.8665 19.3283C20.2429 19.8922 20.4312 20.5663 20.4312 21.3503C20.4312 22.2307 20.1824 22.9735 19.685 23.5787C19.1875 24.184 18.5086 24.5898 17.6481 24.7961V24.4866C18.643 24.6379 19.4161 25.0231 19.9673 25.6421C20.5186 26.2611 20.7942 27.0658 20.7942 28.0562C20.7942 29.3492 20.3639 30.3533 19.5035 31.0686C18.6565 31.7702 17.4733 32.1209 15.9541 32.1209H10.8922ZM12.0014 30.1195H15.6314C16.5457 30.1195 17.2179 29.9407 17.6481 29.583C18.0784 29.2116 18.2935 28.6614 18.2935 27.9324C18.2935 27.1896 18.0784 26.6393 17.6481 26.2817C17.2179 25.9241 16.5457 25.7452 15.6314 25.7452H12.0014V30.1195ZM12.0014 23.7438H15.2886C16.1759 23.7438 16.8347 23.5719 17.2649 23.228C17.7086 22.8703 17.9305 22.3476 17.9305 21.6598C17.9305 20.9721 17.7086 20.4562 17.2649 20.1123C16.8347 19.7547 16.1759 19.5759 15.2886 19.5759H12.0014V23.7438Z" fill="#FFB5C6"/>
<path d="M26.1027 32.3273C25.2825 32.3273 24.6036 32.176 24.0658 31.8733C23.528 31.557 23.1247 31.0893 22.8558 30.4703C22.6003 29.8513 22.4726 29.081 22.4726 28.1593V23.1661C22.4726 22.7259 22.5802 22.4026 22.7953 22.1963C23.0104 21.9762 23.3196 21.8662 23.723 21.8662C24.1263 21.8662 24.4355 21.9762 24.6506 22.1963C24.8792 22.4026 24.9935 22.7259 24.9935 23.1661V28.2006C24.9935 28.9159 25.1347 29.4455 25.417 29.7894C25.6993 30.1333 26.1497 30.3052 26.7682 30.3052C27.4404 30.3052 27.9917 30.0714 28.4219 29.6037C28.8521 29.1222 29.0672 28.4895 29.0672 27.7054V23.1661C29.0672 22.7259 29.1748 22.4026 29.3899 22.1963C29.605 21.9762 29.9142 21.8662 30.3176 21.8662C30.7209 21.8662 31.0301 21.9762 31.2453 22.1963C31.4738 22.4026 31.5881 22.7259 31.5881 23.1661V30.9655C31.5881 31.8458 31.178 32.286 30.3579 32.286C29.968 32.286 29.6655 32.176 29.4504 31.9559C29.2353 31.722 29.1277 31.3919 29.1277 30.9655V29.3973L29.4101 30.0163C29.1277 30.7591 28.6975 31.33 28.1194 31.7289C27.5547 32.1278 26.8825 32.3273 26.1027 32.3273Z" fill="#FFB5C6"/>
<path d="M34.832 32.286C34.4287 32.286 34.1194 32.176 33.9043 31.9559C33.6892 31.722 33.5816 31.3919 33.5816 30.9655V23.1661C33.5816 22.7396 33.6892 22.4164 33.9043 22.1963C34.1194 21.9762 34.4219 21.8662 34.8118 21.8662C35.2017 21.8662 35.5042 21.9762 35.7194 22.1963C35.9345 22.4164 36.042 22.7396 36.042 23.1661V24.5691L35.8202 24.0533C36.116 23.3243 36.5731 22.774 37.1915 22.4026C37.8234 22.0175 38.536 21.8249 39.3292 21.8249C40.1225 21.8249 40.7745 21.9762 41.2854 22.2788C41.7963 22.5815 42.1795 23.0423 42.435 23.6613C42.6904 24.2665 42.8181 25.0368 42.8181 25.9722V30.9655C42.8181 31.3919 42.7106 31.722 42.4955 31.9559C42.2804 32.176 41.9711 32.286 41.5678 32.286C41.1644 32.286 40.8485 32.176 40.6199 31.9559C40.4048 31.722 40.2973 31.3919 40.2973 30.9655V26.096C40.2973 25.3119 40.1494 24.7411 39.8536 24.3834C39.5713 24.0258 39.1276 23.847 38.5226 23.847C37.7831 23.847 37.1915 24.0877 36.7479 24.5691C36.3176 25.0368 36.1025 25.6627 36.1025 26.4468V30.9655C36.1025 31.8458 35.679 32.286 34.832 32.286Z" fill="#FFB5C6"/>
<path d="M45.9987 32.286C45.5954 32.286 45.2861 32.176 45.071 31.9559C44.8559 31.722 44.7483 31.3919 44.7483 30.9655V23.1661C44.7483 22.7396 44.8559 22.4164 45.071 22.1963C45.2861 21.9762 45.5886 21.8662 45.9785 21.8662C46.3684 21.8662 46.6709 21.9762 46.8861 22.1963C47.1012 22.4164 47.2087 22.7396 47.2087 23.1661V24.5691L46.9869 24.0533C47.2827 23.3243 47.7398 22.774 48.3582 22.4026C48.9901 22.0175 49.7027 21.8249 50.4959 21.8249C51.2892 21.8249 51.9413 21.9762 52.4522 22.2788C52.9631 22.5815 53.3462 23.0423 53.6017 23.6613C53.8571 24.2665 53.9848 25.0368 53.9848 25.9722V30.9655C53.9848 31.3919 53.8773 31.722 53.6622 31.9559C53.4471 32.176 53.1378 32.286 52.7345 32.286C52.3312 32.286 52.0152 32.176 51.7866 31.9559C51.5715 31.722 51.464 31.3919 51.464 30.9655V26.096C51.464 25.3119 51.3161 24.7411 51.0203 24.3834C50.738 24.0258 50.2943 23.847 49.6893 23.847C48.9498 23.847 48.3582 24.0877 47.9146 24.5691C47.4843 25.0368 47.2692 25.6627 47.2692 26.4468V30.9655C47.2692 31.8458 46.8457 32.286 45.9987 32.286Z" fill="#FFB5C6"/>
<path d="M58.9475 36C58.6517 36 58.4097 35.9175 58.2215 35.7524C58.0333 35.6011 57.919 35.3948 57.8787 35.1334C57.8518 34.872 57.8988 34.5969 58.0198 34.3081L59.3912 31.1924V32.2654L55.7208 23.5787C55.5998 23.2761 55.5594 22.9941 55.5998 22.7328C55.6401 22.4714 55.7611 22.2651 55.9628 22.1138C56.1779 21.9487 56.467 21.8662 56.83 21.8662C57.1392 21.8662 57.3879 21.9418 57.5761 22.0931C57.7644 22.2307 57.9324 22.4989 58.0803 22.8978L60.8029 29.8513H60.1979L62.9809 22.8772C63.1288 22.4921 63.3036 22.2307 63.5053 22.0931C63.7069 21.9418 63.9758 21.8662 64.3119 21.8662C64.6077 21.8662 64.843 21.9487 65.0178 22.1138C65.1926 22.2651 65.3001 22.4714 65.3405 22.7328C65.3808 22.9804 65.3337 23.2555 65.1993 23.5581L60.2987 35.0096C60.1239 35.3948 59.9357 35.6561 59.734 35.7937C59.5323 35.9312 59.2702 36 58.9475 36Z" fill="#FFB5C6"/>
<path d="M30.1754 15.796C30.1754 15.1251 29.2066 14.4543 29.2066 14.4543C29.2066 14.4543 34.0509 12.7773 34.6969 12.7773C35.3428 12.7773 33.405 15.4605 33.728 16.4668C34.0509 17.473 34.3739 17.8084 34.3739 18.8146C34.3739 19.8208 34.0509 20.4916 33.405 20.4916C32.7591 20.4916 32.4361 19.8208 32.4361 19.15C32.4361 18.4792 32.4361 18.1438 32.7591 17.1376C33.0821 16.1314 33.0821 14.7897 32.1132 14.7897C31.1443 14.7897 31.1443 15.796 31.1443 16.4668C31.1443 17.1376 31.4673 17.4581 31.4673 18.1438C31.4673 18.8294 31.1443 19.15 30.4984 19.15C29.8525 19.15 29.5295 18.1438 29.8525 17.473C30.1754 16.8022 30.1754 16.4668 30.1754 15.796Z" fill="#FFB5C6"/>
<path fill-rule="evenodd" clip-rule="evenodd" d="M33.8611 12.536C34.0389 12.4914 34.208 12.4559 34.3227 12.4559C34.4099 12.4559 34.5189 12.4807 34.6105 12.5715C34.701 12.6612 34.7339 12.7754 34.7442 12.8631C34.7628 13.0201 34.7209 13.1924 34.6799 13.3282C34.6011 13.5898 34.4542 13.9316 34.3054 14.278C34.2887 14.3169 34.2719 14.3558 34.2553 14.3947C34.0843 14.7936 33.9125 15.2047 33.801 15.5747C33.7454 15.7591 33.7079 15.9234 33.6917 16.0633C33.6753 16.2059 33.6836 16.302 33.7017 16.362C33.7741 16.6019 33.8466 16.8025 33.9161 16.987C33.933 17.0319 33.9501 17.0766 33.9671 17.1211C34.0185 17.256 34.0693 17.3893 34.1139 17.5206C34.2381 17.8869 34.3221 18.2609 34.3221 18.8078C34.3221 19.3382 34.2433 19.8219 34.0555 20.1852C33.8584 20.5665 33.5387 20.813 33.1129 20.813C32.6932 20.813 32.3787 20.5741 32.1812 20.2465C31.9896 19.9288 31.9038 19.526 31.9038 19.1422V19.1314C31.9038 18.8048 31.9038 18.5335 31.9446 18.2174C31.986 17.8973 32.0675 17.5419 32.2217 17.0307C32.3635 16.5604 32.4257 16.0349 32.3623 15.6492C32.3309 15.4585 32.2735 15.3293 32.2055 15.2512C32.1448 15.1816 32.056 15.1288 31.9032 15.1288C31.7288 15.1288 31.6249 15.176 31.5585 15.2304C31.4899 15.2866 31.4344 15.3725 31.392 15.4975C31.3014 15.7647 31.2977 16.118 31.2977 16.4673C31.2977 16.7418 31.3577 16.9427 31.4333 17.1917L31.4349 17.1969C31.5107 17.4464 31.6002 17.7411 31.6002 18.1391C31.6002 18.5303 31.5136 18.8827 31.2839 19.1339C31.0547 19.3844 30.7367 19.4756 30.391 19.4756C29.9132 19.4756 29.6029 19.0785 29.4657 18.674C29.3268 18.2644 29.3227 17.749 29.5161 17.3214C29.6575 17.0087 29.7213 16.7899 29.753 16.5797C29.786 16.3613 29.7867 16.1395 29.7867 15.7986C29.7867 15.7133 29.7569 15.606 29.6879 15.4788C29.6199 15.3534 29.5245 15.2287 29.4214 15.1147C29.3192 15.0017 29.2159 14.9064 29.1376 14.8391C29.0987 14.8056 29.0666 14.7796 29.0447 14.7623C29.0338 14.7537 29.0254 14.7473 29.0201 14.7432L29.0145 14.7389L29.0137 14.7384L28.5009 14.3604L29.0857 14.1449L29.1813 14.4611C29.0857 14.1449 29.0857 14.1449 29.0857 14.1449L29.1372 14.126L29.2827 14.0727C29.4082 14.0269 29.5881 13.9615 29.8059 13.883C30.2414 13.726 30.8286 13.5165 31.435 13.307C32.041 13.0977 32.6683 12.8875 33.1833 12.7293C33.4405 12.6503 33.6725 12.5834 33.8611 12.536ZM29.7969 14.5877C29.814 14.6058 29.8313 14.6244 29.8485 14.6435C29.9722 14.7802 30.1037 14.948 30.2057 15.1361C30.3068 15.3224 30.3904 15.5495 30.3904 15.7986L30.3904 15.8157C30.3905 16.1362 30.3905 16.4111 30.3485 16.6892C30.3046 16.9806 30.2172 17.2633 30.0562 17.6193C29.9471 17.8605 29.9431 18.181 30.031 18.4401C30.1207 18.7044 30.264 18.8089 30.391 18.8089C30.6502 18.8089 30.7858 18.7402 30.8591 18.6601C30.9318 18.5806 30.9965 18.4315 30.9965 18.1391C30.9965 17.8565 30.936 17.6509 30.8609 17.4037L30.8569 17.3903C30.7821 17.1443 30.694 16.8545 30.694 16.4673C30.694 16.4593 30.694 16.4513 30.694 16.4431C30.6939 16.1239 30.6938 15.6552 30.8266 15.2637C30.8976 15.0544 31.0122 14.8477 31.1989 14.6949C31.3876 14.5403 31.6239 14.4621 31.9032 14.4621C32.2041 14.4621 32.4554 14.5765 32.6405 14.789C32.8182 14.993 32.912 15.2609 32.9563 15.53C33.044 16.0638 32.9551 16.7086 32.7944 17.2413C32.6461 17.7333 32.5765 18.0466 32.5422 18.3116C32.5079 18.5772 32.5075 18.8049 32.5075 19.1422C32.5075 19.4272 32.5728 19.6931 32.6837 19.8769C32.7886 20.0509 32.9277 20.1463 33.1129 20.1463C33.292 20.1463 33.4259 20.0585 33.5312 19.8547C33.6459 19.6328 33.7184 19.2806 33.7184 18.8078C33.7184 18.3517 33.6511 18.057 33.5485 17.7545C33.5086 17.6368 33.4645 17.5211 33.4145 17.3901C33.3967 17.3433 33.3781 17.2946 33.3588 17.2432C33.2865 17.0515 33.2078 16.8342 33.129 16.5726C33.0714 16.3819 33.0703 16.1749 33.0929 15.9792C33.1157 15.7808 33.1656 15.5716 33.2282 15.3641C33.3529 14.9504 33.5402 14.5047 33.7096 14.1095C33.7253 14.0729 33.7408 14.0367 33.7561 14.0012C33.9006 13.6643 34.0234 13.3783 34.0931 13.1625C34.0633 13.1693 34.0307 13.1772 33.995 13.1862C33.8198 13.2302 33.5981 13.2939 33.345 13.3717C32.8393 13.527 32.2191 13.7347 31.6153 13.9433C31.012 14.1518 30.4273 14.3603 29.9932 14.5168C29.9238 14.5418 29.8581 14.5655 29.7969 14.5877Z" fill="#FFB5C6"/>
<path fill-rule="evenodd" clip-rule="evenodd" d="M7.46297 11.7498C8.4679 12.2739 9.33787 13.1933 9.85218 13.9085C10.1429 14.3128 10.4463 14.9359 10.7172 15.5627C10.9959 16.2074 11.2671 16.9203 11.4871 17.546C11.7047 18.165 11.8817 18.7258 11.9649 19.0615C11.9854 19.1441 12.0061 19.236 12.0182 19.3208C12.0236 19.3587 12.0327 19.4301 12.0305 19.5127C12.0295 19.5523 12.0254 19.6309 12.0004 19.7243C11.98 19.8006 11.9129 20.0145 11.7002 20.1743C11.4386 20.3707 11.1531 20.347 10.9768 20.2824C10.8296 20.2284 10.7347 20.1423 10.6987 20.108C10.6192 20.0321 10.5675 19.9524 10.5476 19.9212C10.4972 19.8422 10.4491 19.7479 10.4067 19.6595C10.33 19.4994 10.1492 19.2849 9.82085 19.0292C9.50277 18.7815 9.10468 18.5394 8.66948 18.3026C8.32409 18.1146 7.97495 17.9403 7.6374 17.7717C7.54923 17.7276 7.46186 17.684 7.37556 17.6406C6.97971 17.4416 6.57634 17.2338 6.28811 17.0334C6.16323 16.9465 6.02317 16.8603 5.85196 16.7549C5.70972 16.6673 5.54597 16.5665 5.35159 16.4411C4.96822 16.1938 4.52315 15.8841 4.15178 15.5209C3.79229 15.1694 3.41027 14.6803 3.30935 14.0575C3.19816 13.3713 3.45639 12.7314 3.97713 12.1883C4.50002 11.6429 5.1102 11.3703 5.74884 11.3333C6.36694 11.2975 6.95468 11.4848 7.46297 11.7498ZM5.83561 12.9589C5.59357 12.9729 5.34263 13.0678 5.08269 13.3389C4.82175 13.6111 4.84378 13.7469 4.85012 13.786L4.8502 13.7865C4.86671 13.8884 4.95439 14.0729 5.22116 14.3338C5.47605 14.583 5.81382 14.8244 6.17414 15.0568C6.29975 15.1378 6.44276 15.2265 6.58462 15.3144C6.79889 15.4471 7.01052 15.5783 7.15556 15.6791C7.33704 15.8053 7.63822 15.9649 8.05457 16.1742C8.1337 16.214 8.21615 16.2552 8.30114 16.2976C8.64088 16.4672 9.02125 16.6572 9.39293 16.8595C9.46095 16.8965 9.52934 16.9342 9.59785 16.9728C9.49825 16.7201 9.39551 16.4698 9.29241 16.2312C9.0251 15.6128 8.78055 15.1336 8.60157 14.8847C8.17648 14.2935 7.48079 13.5798 6.76352 13.2058C6.41069 13.0218 6.09819 12.9437 5.83561 12.9589Z" fill="#FFB5C6"/>
<path fill-rule="evenodd" clip-rule="evenodd" d="M3.22765 16.7421C4.2592 16.428 5.54499 16.4523 6.41652 16.6621C6.92269 16.784 7.53635 17.1096 8.09729 17.4508C8.68102 17.8059 9.29205 18.2312 9.81682 18.6179C10.3416 19.0045 10.7932 19.3624 11.06 19.5876C11.1268 19.644 11.1866 19.696 11.2352 19.7404C11.2363 19.7415 11.2377 19.7427 11.2394 19.7442C11.2665 19.7689 11.3545 19.8488 11.4199 19.9403C11.42 19.9404 11.4202 19.9406 11.4204 19.941C11.4289 19.9522 11.5284 20.0846 11.5652 20.278C11.5878 20.3965 11.6094 20.6698 11.4162 20.9182C11.2281 21.1601 10.9758 21.1973 10.8721 21.2027C10.6944 21.2119 10.5549 21.1519 10.5395 21.1453C10.5389 21.145 10.5384 21.1448 10.5382 21.1448C10.4962 21.1276 10.4626 21.1099 10.4445 21.1C10.3784 21.064 10.3058 21.0147 10.2478 20.9742C10.1564 20.9104 9.97903 20.8383 9.68028 20.7949C9.39062 20.7529 9.04392 20.7459 8.66118 20.7649C8.02304 20.7967 7.36306 20.8953 6.79105 20.9808C6.67076 20.9988 6.55435 21.0162 6.44286 21.0323C6.26534 21.0579 6.07926 21.0961 5.85917 21.1414C5.72001 21.17 5.56725 21.2014 5.39447 21.2341C4.98496 21.3118 4.50673 21.3865 4.03233 21.3823C3.56115 21.3782 3.02633 21.2963 2.5449 21.0005C2.03793 20.6889 1.67257 20.1909 1.4834 19.5212C1.2786 18.7963 1.40286 18.1397 1.80347 17.6323C2.17048 17.1674 2.71232 16.899 3.22765 16.7421ZM3.00983 18.6618C2.94082 18.7492 2.88766 18.8654 2.96051 19.1233C3.049 19.4365 3.17972 19.5674 3.29918 19.6408C3.44417 19.7299 3.66613 19.7891 3.99399 19.792C4.31862 19.7949 4.68169 19.7428 5.06766 19.6696C5.18585 19.6472 5.31407 19.621 5.44463 19.5943C5.70005 19.5421 5.96442 19.4881 6.18015 19.457C6.27799 19.4429 6.38448 19.427 6.49798 19.4099C6.92188 19.3464 7.44363 19.2681 7.97865 19.2174C7.76693 19.0758 7.55502 18.9395 7.3492 18.8143C6.7972 18.4785 6.36556 18.2707 6.11486 18.2104C5.47263 18.0557 4.4589 18.0402 3.7082 18.2688C3.3324 18.3832 3.11243 18.5318 3.00983 18.6618ZM10.2604 20.9384C10.2602 20.9383 10.2577 20.9359 10.2535 20.9315C10.2585 20.9363 10.2606 20.9385 10.2604 20.9384Z" fill="#FFB5C6"/>
<ellipse cx="68.0964" cy="30.8571" rx="1.25455" ry="1.28571" fill="#FED58D"/>
<mask id="mask0_816_3384" style="mask-type:alpha" maskUnits="userSpaceOnUse" x="1" y="0" width="69" height="36">
<path d="M12.968 14.8766C12.5512 14.8766 12.2286 14.7597 12 14.5259C11.7849 14.2783 11.6773 13.9413 11.6773 13.5148V1.3618C11.6773 0.921623 11.7849 0.584612 12 0.350767C12.2286 0.116922 12.5512 0 12.968 0C13.3848 0 13.7008 0.116922 13.9159 0.350767C14.1444 0.584612 14.2587 0.921623 14.2587 1.3618V6.23127H21.5794V1.3618C21.5794 0.921623 21.6869 0.584612 21.902 0.350767C22.1306 0.116922 22.4533 0 22.87 0C23.2868 0 23.6028 0.116922 23.8179 0.350767C24.0465 0.584612 24.1607 0.921623 24.1607 1.3618V13.5148C24.1607 13.9413 24.0465 14.2783 23.8179 14.5259C23.6028 14.7597 23.2868 14.8766 22.87 14.8766C22.4533 14.8766 22.1306 14.7597 21.902 14.5259C21.6869 14.2783 21.5794 13.9413 21.5794 13.5148V8.43903H14.2587V13.5148C14.2587 13.9413 14.1512 14.2783 13.9361 14.5259C13.7209 14.7597 13.3983 14.8766 12.968 14.8766Z" fill="#FF8EB4"/>
<path d="M30.9003 14.9179C29.8785 14.9179 28.9912 14.7047 28.2383 14.2783C27.4853 13.8518 26.9005 13.2466 26.4837 12.4625C26.0669 11.6647 25.8585 10.7293 25.8585 9.6564C25.8585 8.84482 25.9728 8.12265 26.2014 7.4899C26.4434 6.84339 26.7862 6.29317 27.2299 5.83923C27.6736 5.37154 28.2046 5.02078 28.8231 4.78693C29.4416 4.53933 30.134 4.41553 30.9003 4.41553C31.9221 4.41553 32.8094 4.62874 33.5623 5.05517C34.3153 5.48159 34.9001 6.08683 35.3169 6.8709C35.7337 7.65497 35.9421 8.58347 35.9421 9.6564C35.9421 10.468 35.8211 11.197 35.5791 11.8435C35.3505 12.49 35.0144 13.0471 34.5707 13.5148C34.127 13.9688 33.596 14.3195 32.9775 14.5671C32.359 14.801 31.6666 14.9179 30.9003 14.9179ZM30.9003 12.9577C31.3978 12.9577 31.8347 12.8339 32.2112 12.5863C32.5876 12.3387 32.8767 11.9742 33.0783 11.4928C33.2935 10.9976 33.401 10.3854 33.401 9.6564C33.401 8.55595 33.1725 7.7375 32.7153 7.20103C32.2582 6.65081 31.6532 6.3757 30.9003 6.3757C30.4028 6.3757 29.9659 6.4995 29.5894 6.7471C29.213 6.98094 28.9172 7.34547 28.7021 7.84067C28.5004 8.32211 28.3996 8.92735 28.3996 9.6564C28.3996 10.7431 28.6281 11.5684 29.0853 12.1324C29.5424 12.6826 30.1474 12.9577 30.9003 12.9577Z" fill="#FF8EB4"/>
<path d="M39.2731 14.8766C38.8697 14.8766 38.5605 14.7666 38.3454 14.5465C38.1303 14.3127 38.0227 13.9825 38.0227 13.5561V5.7567C38.0227 5.33028 38.1303 5.00702 38.3454 4.78693C38.5605 4.56684 38.863 4.4568 39.2529 4.4568C39.6428 4.4568 39.9453 4.56684 40.1604 4.78693C40.3755 5.00702 40.4831 5.33028 40.4831 5.7567V7.15977L40.2613 6.64393C40.557 5.91489 41.0142 5.36467 41.6326 4.99327C42.2645 4.60811 42.9771 4.41553 43.7703 4.41553C44.5636 4.41553 45.2156 4.56684 45.7265 4.86947C46.2374 5.17209 46.6206 5.6329 46.876 6.2519C47.1315 6.85714 47.2592 7.62746 47.2592 8.56283V13.5561C47.2592 13.9825 47.1517 14.3127 46.9366 14.5465C46.7214 14.7666 46.4122 14.8766 46.0089 14.8766C45.6055 14.8766 45.2896 14.7666 45.061 14.5465C44.8459 14.3127 44.7383 13.9825 44.7383 13.5561V8.68663C44.7383 7.90257 44.5905 7.33171 44.2947 6.97407C44.0123 6.61642 43.5687 6.4376 42.9636 6.4376C42.2242 6.4376 41.6326 6.67832 41.1889 7.15977C40.7587 7.62745 40.5436 8.25333 40.5436 9.0374V13.5561C40.5436 14.4365 40.1201 14.8766 39.2731 14.8766Z" fill="#FF8EB4"/>
<path d="M54.6799 14.9179C53.564 14.9179 52.6027 14.7047 51.796 14.2783C50.9893 13.8518 50.3642 13.2466 49.9205 12.4625C49.4902 11.6785 49.2751 10.75 49.2751 9.67703C49.2751 8.63161 49.4835 7.71687 49.9003 6.9328C50.3305 6.14873 50.9154 5.53661 51.6548 5.09643C52.4077 4.6425 53.2615 4.41553 54.2161 4.41553C54.9152 4.41553 55.5404 4.53246 56.0916 4.7663C56.6563 5.00014 57.1336 5.33715 57.5234 5.77733C57.9268 6.21751 58.2293 6.75398 58.431 7.38673C58.6461 8.00573 58.7536 8.70727 58.7536 9.49133C58.7536 9.73893 58.6662 9.93151 58.4915 10.0691C58.3301 10.1929 58.0948 10.2548 57.7856 10.2548H51.312V8.76917H56.9789L56.6563 9.07867C56.6563 8.44591 56.5622 7.91632 56.3739 7.4899C56.1991 7.06348 55.937 6.74022 55.5874 6.52013C55.2513 6.28629 54.8278 6.16937 54.3169 6.16937C53.7522 6.16937 53.2682 6.30692 52.8649 6.58203C52.475 6.84339 52.1725 7.22167 51.9574 7.71687C51.7557 8.19831 51.6548 8.77604 51.6548 9.45007V9.5945C51.6548 10.7225 51.9103 11.5684 52.4212 12.1324C52.9455 12.6826 53.7119 12.9577 54.7202 12.9577C55.0698 12.9577 55.4597 12.9165 55.8899 12.8339C56.3336 12.7376 56.7504 12.5795 57.1403 12.3594C57.4226 12.1943 57.6713 12.1255 57.8865 12.153C58.1016 12.1668 58.2696 12.2424 58.3906 12.38C58.5251 12.5176 58.6057 12.6895 58.6326 12.8958C58.6595 13.0884 58.6192 13.2879 58.5116 13.4942C58.4175 13.7005 58.2495 13.8794 58.0075 14.0307C57.5369 14.3333 56.9924 14.5603 56.3739 14.7116C55.7689 14.8491 55.2042 14.9179 54.6799 14.9179Z" fill="#FF8EB4"/>
<path d="M63.0932 18.5906C62.7974 18.5906 62.5554 18.5081 62.3672 18.343C62.1789 18.1917 62.0647 17.9854 62.0243 17.724C61.9974 17.4627 62.0445 17.1876 62.1655 16.8987L63.5368 13.7831V14.856L59.8664 6.16937C59.7454 5.86674 59.7051 5.58475 59.7454 5.3234C59.7858 5.06204 59.9068 4.85571 60.1084 4.7044C60.3236 4.53933 60.6126 4.4568 60.9756 4.4568C61.2849 4.4568 61.5336 4.53245 61.7218 4.68377C61.91 4.82132 62.0781 5.08956 62.226 5.48847L64.9485 12.4419H64.3435L67.1266 5.46783C67.2745 5.08268 67.4492 4.82132 67.6509 4.68377C67.8526 4.53245 68.1215 4.4568 68.4576 4.4568C68.7534 4.4568 68.9887 4.53933 69.1634 4.7044C69.3382 4.85571 69.4458 5.06204 69.4861 5.3234C69.5265 5.571 69.4794 5.84611 69.3449 6.14873L64.4444 17.6002C64.2696 17.9854 64.0814 18.2467 63.8797 18.3843C63.678 18.5219 63.4158 18.5906 63.0932 18.5906Z" fill="#FF8EB4"/>
<path d="M10.8922 32.1209C10.4485 32.1209 10.1057 32.004 9.86365 31.7702C9.63509 31.5226 9.52081 31.1718 9.52081 30.7179V18.9775C9.52081 18.5236 9.63509 18.1797 9.86365 17.9458C10.1057 17.6982 10.4485 17.5744 10.8922 17.5744H15.7323C16.7272 17.5744 17.5742 17.7257 18.2733 18.0284C18.9724 18.331 19.5035 18.7643 19.8665 19.3283C20.2429 19.8922 20.4312 20.5663 20.4312 21.3503C20.4312 22.2307 20.1824 22.9735 19.685 23.5787C19.1875 24.184 18.5086 24.5898 17.6481 24.7961V24.4866C18.643 24.6379 19.4161 25.0231 19.9673 25.6421C20.5186 26.2611 20.7942 27.0658 20.7942 28.0562C20.7942 29.3492 20.3639 30.3533 19.5035 31.0686C18.6565 31.7702 17.4733 32.1209 15.9541 32.1209H10.8922ZM12.0014 30.1195H15.6314C16.5457 30.1195 17.2179 29.9407 17.6481 29.583C18.0784 29.2116 18.2935 28.6614 18.2935 27.9324C18.2935 27.1896 18.0784 26.6393 17.6481 26.2817C17.2179 25.9241 16.5457 25.7452 15.6314 25.7452H12.0014V30.1195ZM12.0014 23.7438H15.2886C16.1759 23.7438 16.8347 23.5719 17.2649 23.228C17.7086 22.8703 17.9305 22.3476 17.9305 21.6598C17.9305 20.9721 17.7086 20.4562 17.2649 20.1123C16.8347 19.7547 16.1759 19.5759 15.2886 19.5759H12.0014V23.7438Z" fill="#FF8EB4"/>
<path d="M26.1027 32.3273C25.2825 32.3273 24.6036 32.176 24.0658 31.8733C23.528 31.557 23.1247 31.0893 22.8558 30.4703C22.6003 29.8513 22.4726 29.081 22.4726 28.1593V23.1661C22.4726 22.7259 22.5802 22.4026 22.7953 22.1963C23.0104 21.9762 23.3196 21.8662 23.723 21.8662C24.1263 21.8662 24.4355 21.9762 24.6506 22.1963C24.8792 22.4026 24.9935 22.7259 24.9935 23.1661V28.2006C24.9935 28.9159 25.1347 29.4455 25.417 29.7894C25.6993 30.1333 26.1497 30.3052 26.7682 30.3052C27.4404 30.3052 27.9917 30.0714 28.4219 29.6037C28.8521 29.1222 29.0672 28.4895 29.0672 27.7054V23.1661C29.0672 22.7259 29.1748 22.4026 29.3899 22.1963C29.605 21.9762 29.9142 21.8662 30.3176 21.8662C30.7209 21.8662 31.0301 21.9762 31.2453 22.1963C31.4738 22.4026 31.5881 22.7259 31.5881 23.1661V30.9655C31.5881 31.8458 31.178 32.286 30.3579 32.286C29.968 32.286 29.6655 32.176 29.4504 31.9559C29.2353 31.722 29.1277 31.3919 29.1277 30.9655V29.3973L29.4101 30.0163C29.1277 30.7591 28.6975 31.33 28.1194 31.7289C27.5547 32.1278 26.8825 32.3273 26.1027 32.3273Z" fill="#FF8EB4"/>
<path d="M34.832 32.286C34.4287 32.286 34.1194 32.176 33.9043 31.9559C33.6892 31.722 33.5816 31.3919 33.5816 30.9655V23.1661C33.5816 22.7396 33.6892 22.4164 33.9043 22.1963C34.1194 21.9762 34.4219 21.8662 34.8118 21.8662C35.2017 21.8662 35.5042 21.9762 35.7194 22.1963C35.9345 22.4164 36.042 22.7396 36.042 23.1661V24.5691L35.8202 24.0533C36.116 23.3243 36.5731 22.774 37.1915 22.4026C37.8234 22.0175 38.536 21.8249 39.3292 21.8249C40.1225 21.8249 40.7745 21.9762 41.2854 22.2788C41.7963 22.5815 42.1795 23.0423 42.435 23.6613C42.6904 24.2665 42.8181 25.0368 42.8181 25.9722V30.9655C42.8181 31.3919 42.7106 31.722 42.4955 31.9559C42.2804 32.176 41.9711 32.286 41.5678 32.286C41.1644 32.286 40.8485 32.176 40.6199 31.9559C40.4048 31.722 40.2973 31.3919 40.2973 30.9655V26.096C40.2973 25.3119 40.1494 24.7411 39.8536 24.3834C39.5713 24.0258 39.1276 23.847 38.5226 23.847C37.7831 23.847 37.1915 24.0877 36.7479 24.5691C36.3176 25.0368 36.1025 25.6627 36.1025 26.4468V30.9655C36.1025 31.8458 35.679 32.286 34.832 32.286Z" fill="#FF8EB4"/>
<path d="M45.9987 32.286C45.5954 32.286 45.2861 32.176 45.071 31.9559C44.8559 31.722 44.7483 31.3919 44.7483 30.9655V23.1661C44.7483 22.7396 44.8559 22.4164 45.071 22.1963C45.2861 21.9762 45.5886 21.8662 45.9785 21.8662C46.3684 21.8662 46.6709 21.9762 46.8861 22.1963C47.1012 22.4164 47.2087 22.7396 47.2087 23.1661V24.5691L46.9869 24.0533C47.2827 23.3243 47.7398 22.774 48.3582 22.4026C48.9901 22.0175 49.7027 21.8249 50.4959 21.8249C51.2892 21.8249 51.9413 21.9762 52.4522 22.2788C52.9631 22.5815 53.3462 23.0423 53.6017 23.6613C53.8571 24.2665 53.9848 25.0368 53.9848 25.9722V30.9655C53.9848 31.3919 53.8773 31.722 53.6622 31.9559C53.4471 32.176 53.1378 32.286 52.7345 32.286C52.3312 32.286 52.0152 32.176 51.7866 31.9559C51.5715 31.722 51.464 31.3919 51.464 30.9655V26.096C51.464 25.3119 51.3161 24.7411 51.0203 24.3834C50.738 24.0258 50.2943 23.847 49.6893 23.847C48.9498 23.847 48.3582 24.0877 47.9146 24.5691C47.4843 25.0368 47.2692 25.6627 47.2692 26.4468V30.9655C47.2692 31.8458 46.8457 32.286 45.9987 32.286Z" fill="#FF8EB4"/>
<path d="M58.9475 36C58.6517 36 58.4097 35.9175 58.2215 35.7524C58.0333 35.6011 57.919 35.3948 57.8787 35.1334C57.8518 34.872 57.8988 34.5969 58.0198 34.3081L59.3912 31.1924V32.2654L55.7208 23.5787C55.5998 23.2761 55.5594 22.9941 55.5998 22.7328C55.6401 22.4714 55.7611 22.2651 55.9628 22.1138C56.1779 21.9487 56.467 21.8662 56.83 21.8662C57.1392 21.8662 57.3879 21.9418 57.5761 22.0931C57.7644 22.2307 57.9324 22.4989 58.0803 22.8978L60.8029 29.8513H60.1979L62.9809 22.8772C63.1288 22.4921 63.3036 22.2307 63.5053 22.0931C63.7069 21.9418 63.9758 21.8662 64.3119 21.8662C64.6077 21.8662 64.843 21.9487 65.0178 22.1138C65.1926 22.2651 65.3001 22.4714 65.3405 22.7328C65.3808 22.9804 65.3337 23.2555 65.1993 23.5581L60.2987 35.0096C60.1239 35.3948 59.9357 35.6561 59.734 35.7937C59.5323 35.9312 59.2702 36 58.9475 36Z" fill="#FF8EB4"/>
<path d="M30.1754 15.796C30.1754 15.1251 29.2066 14.4543 29.2066 14.4543C29.2066 14.4543 34.0509 12.7773 34.6969 12.7773C35.3428 12.7773 33.405 15.4605 33.728 16.4668C34.0509 17.473 34.3739 17.8084 34.3739 18.8146C34.3739 19.8208 34.0509 20.4916 33.405 20.4916C32.7591 20.4916 32.4361 19.8208 32.4361 19.15C32.4361 18.4792 32.4361 18.1438 32.7591 17.1376C33.0821 16.1314 33.0821 14.7897 32.1132 14.7897C31.1443 14.7897 31.1443 15.796 31.1443 16.4668C31.1443 17.1376 31.4673 17.4581 31.4673 18.1438C31.4673 18.8294 31.1443 19.15 30.4984 19.15C29.8525 19.15 29.5295 18.1438 29.8525 17.473C30.1754 16.8022 30.1754 16.4668 30.1754 15.796Z" fill="#FF8EB4"/>
<path fill-rule="evenodd" clip-rule="evenodd" d="M33.8611 12.536C34.0389 12.4914 34.208 12.4559 34.3227 12.4559C34.4099 12.4559 34.5189 12.4807 34.6105 12.5715C34.701 12.6612 34.7339 12.7754 34.7442 12.8631C34.7628 13.0201 34.7209 13.1924 34.6799 13.3282C34.6011 13.5898 34.4542 13.9316 34.3054 14.278C34.2887 14.3169 34.2719 14.3558 34.2553 14.3947C34.0843 14.7936 33.9125 15.2047 33.801 15.5747C33.7454 15.7591 33.7079 15.9234 33.6917 16.0633C33.6753 16.2059 33.6836 16.302 33.7017 16.362C33.7741 16.6019 33.8466 16.8025 33.9161 16.987C33.933 17.0319 33.9501 17.0766 33.9671 17.1211C34.0185 17.256 34.0693 17.3893 34.1139 17.5206C34.2381 17.8869 34.3221 18.2609 34.3221 18.8078C34.3221 19.3382 34.2433 19.8219 34.0555 20.1852C33.8584 20.5665 33.5387 20.813 33.1129 20.813C32.6932 20.813 32.3787 20.5741 32.1812 20.2465C31.9896 19.9288 31.9038 19.526 31.9038 19.1422V19.1314C31.9038 18.8048 31.9038 18.5335 31.9446 18.2174C31.986 17.8973 32.0675 17.5419 32.2217 17.0307C32.3635 16.5604 32.4257 16.0349 32.3623 15.6492C32.3309 15.4585 32.2735 15.3293 32.2055 15.2512C32.1448 15.1816 32.056 15.1288 31.9032 15.1288C31.7288 15.1288 31.6249 15.176 31.5585 15.2304C31.4899 15.2866 31.4344 15.3725 31.392 15.4975C31.3014 15.7647 31.2977 16.118 31.2977 16.4673C31.2977 16.7418 31.3577 16.9427 31.4333 17.1917L31.4349 17.1969C31.5107 17.4464 31.6002 17.7411 31.6002 18.1391C31.6002 18.5303 31.5136 18.8827 31.2839 19.1339C31.0547 19.3844 30.7367 19.4756 30.391 19.4756C29.9132 19.4756 29.6029 19.0785 29.4657 18.674C29.3268 18.2644 29.3227 17.749 29.5161 17.3214C29.6575 17.0087 29.7213 16.7899 29.753 16.5797C29.786 16.3613 29.7867 16.1395 29.7867 15.7986C29.7867 15.7133 29.7569 15.606 29.6879 15.4788C29.6199 15.3534 29.5245 15.2287 29.4214 15.1147C29.3192 15.0017 29.2159 14.9064 29.1376 14.8391C29.0987 14.8056 29.0666 14.7796 29.0447 14.7623C29.0338 14.7537 29.0254 14.7473 29.0201 14.7432L29.0145 14.7389L29.0137 14.7384L28.5009 14.3604L29.0857 14.1449L29.1813 14.4611C29.0857 14.1449 29.0857 14.1449 29.0857 14.1449L29.1372 14.126L29.2827 14.0727C29.4082 14.0269 29.5881 13.9615 29.8059 13.883C30.2414 13.726 30.8286 13.5165 31.435 13.307C32.041 13.0977 32.6683 12.8875 33.1833 12.7293C33.4405 12.6503 33.6725 12.5834 33.8611 12.536ZM29.7969 14.5877C29.814 14.6058 29.8313 14.6244 29.8485 14.6435C29.9722 14.7802 30.1037 14.948 30.2057 15.1361C30.3068 15.3224 30.3904 15.5495 30.3904 15.7986L30.3904 15.8157C30.3905 16.1362 30.3905 16.4111 30.3485 16.6892C30.3046 16.9806 30.2172 17.2633 30.0562 17.6193C29.9471 17.8605 29.9431 18.181 30.031 18.4401C30.1207 18.7044 30.264 18.8089 30.391 18.8089C30.6502 18.8089 30.7858 18.7402 30.8591 18.6601C30.9318 18.5806 30.9965 18.4315 30.9965 18.1391C30.9965 17.8565 30.936 17.6509 30.8609 17.4037L30.8569 17.3903C30.7821 17.1443 30.694 16.8545 30.694 16.4673C30.694 16.4593 30.694 16.4513 30.694 16.4431C30.6939 16.1239 30.6938 15.6552 30.8266 15.2637C30.8976 15.0544 31.0122 14.8477 31.1989 14.6949C31.3876 14.5403 31.6239 14.4621 31.9032 14.4621C32.2041 14.4621 32.4554 14.5765 32.6405 14.789C32.8182 14.993 32.912 15.2609 32.9563 15.53C33.044 16.0638 32.9551 16.7086 32.7944 17.2413C32.6461 17.7333 32.5765 18.0466 32.5422 18.3116C32.5079 18.5772 32.5075 18.8049 32.5075 19.1422C32.5075 19.4272 32.5728 19.6931 32.6837 19.8769C32.7886 20.0509 32.9277 20.1463 33.1129 20.1463C33.292 20.1463 33.4259 20.0585 33.5312 19.8547C33.6459 19.6328 33.7184 19.2806 33.7184 18.8078C33.7184 18.3517 33.6511 18.057 33.5485 17.7545C33.5086 17.6368 33.4645 17.5211 33.4145 17.3901C33.3967 17.3433 33.3781 17.2946 33.3588 17.2432C33.2865 17.0515 33.2078 16.8342 33.129 16.5726C33.0714 16.3819 33.0703 16.1749 33.0929 15.9792C33.1157 15.7808 33.1656 15.5716 33.2282 15.3641C33.3529 14.9504 33.5402 14.5047 33.7096 14.1095C33.7253 14.0729 33.7408 14.0367 33.7561 14.0012C33.9006 13.6643 34.0234 13.3783 34.0931 13.1625C34.0633 13.1693 34.0307 13.1772 33.995 13.1862C33.8198 13.2302 33.5981 13.2939 33.345 13.3717C32.8393 13.527 32.2191 13.7347 31.6153 13.9433C31.012 14.1518 30.4273 14.3603 29.9932 14.5168C29.9238 14.5418 29.8581 14.5655 29.7969 14.5877Z" fill="#FF8EB4"/>
<path fill-rule="evenodd" clip-rule="evenodd" d="M7.46297 11.7498C8.4679 12.2739 9.33787 13.1933 9.85218 13.9085C10.1429 14.3128 10.4463 14.9359 10.7172 15.5627C10.9959 16.2074 11.2671 16.9203 11.4871 17.546C11.7047 18.165 11.8817 18.7258 11.9649 19.0615C11.9854 19.1441 12.0061 19.236 12.0182 19.3208C12.0236 19.3587 12.0327 19.4301 12.0305 19.5127C12.0295 19.5523 12.0254 19.6309 12.0004 19.7243C11.98 19.8006 11.9129 20.0145 11.7002 20.1743C11.4386 20.3707 11.1531 20.347 10.9768 20.2824C10.8296 20.2284 10.7347 20.1423 10.6987 20.108C10.6192 20.0321 10.5675 19.9524 10.5476 19.9212C10.4972 19.8422 10.4491 19.7479 10.4067 19.6595C10.33 19.4994 10.1492 19.2849 9.82085 19.0292C9.50277 18.7815 9.10468 18.5394 8.66948 18.3026C8.32409 18.1146 7.97495 17.9403 7.6374 17.7717C7.54923 17.7276 7.46186 17.684 7.37556 17.6406C6.97971 17.4416 6.57634 17.2338 6.28811 17.0334C6.16323 16.9465 6.02317 16.8603 5.85196 16.7549C5.70972 16.6673 5.54597 16.5665 5.35159 16.4411C4.96822 16.1938 4.52315 15.8841 4.15178 15.5209C3.79229 15.1694 3.41027 14.6803 3.30935 14.0575C3.19816 13.3713 3.45639 12.7314 3.97713 12.1883C4.50002 11.6429 5.1102 11.3703 5.74884 11.3333C6.36694 11.2975 6.95468 11.4848 7.46297 11.7498ZM5.83561 12.9589C5.59357 12.9729 5.34263 13.0678 5.08269 13.3389C4.82175 13.6111 4.84378 13.7469 4.85012 13.786L4.8502 13.7865C4.86671 13.8884 4.95439 14.0729 5.22116 14.3338C5.47605 14.583 5.81382 14.8244 6.17414 15.0568C6.29975 15.1378 6.44276 15.2265 6.58462 15.3144C6.79889 15.4471 7.01052 15.5783 7.15556 15.6791C7.33704 15.8053 7.63822 15.9649 8.05457 16.1742C8.1337 16.214 8.21615 16.2552 8.30114 16.2976C8.64088 16.4672 9.02125 16.6572 9.39293 16.8595C9.46095 16.8965 9.52934 16.9342 9.59785 16.9728C9.49825 16.7201 9.39551 16.4698 9.29241 16.2312C9.0251 15.6128 8.78055 15.1336 8.60157 14.8847C8.17648 14.2935 7.48079 13.5798 6.76352 13.2058C6.41069 13.0218 6.09819 12.9437 5.83561 12.9589Z" fill="#FF8EB4"/>
<path fill-rule="evenodd" clip-rule="evenodd" d="M3.22765 16.7421C4.2592 16.428 5.54499 16.4523 6.41652 16.6621C6.92269 16.784 7.53635 17.1096 8.09729 17.4508C8.68102 17.8059 9.29205 18.2312 9.81682 18.6179C10.3416 19.0045 10.7932 19.3624 11.06 19.5876C11.1268 19.644 11.1866 19.696 11.2352 19.7404C11.2363 19.7415 11.2377 19.7427 11.2394 19.7442C11.2665 19.7689 11.3545 19.8488 11.4199 19.9403C11.42 19.9404 11.4202 19.9406 11.4204 19.941C11.4289 19.9522 11.5284 20.0846 11.5652 20.278C11.5878 20.3965 11.6094 20.6698 11.4162 20.9182C11.2281 21.1601 10.9758 21.1973 10.8721 21.2027C10.6944 21.2119 10.5549 21.1519 10.5395 21.1453C10.5389 21.145 10.5384 21.1448 10.5382 21.1448C10.4962 21.1276 10.4626 21.1099 10.4445 21.1C10.3784 21.064 10.3058 21.0147 10.2478 20.9742C10.1564 20.9104 9.97903 20.8383 9.68028 20.7949C9.39062 20.7529 9.04392 20.7459 8.66118 20.7649C8.02304 20.7967 7.36306 20.8953 6.79105 20.9808C6.67076 20.9988 6.55435 21.0162 6.44286 21.0323C6.26534 21.0579 6.07926 21.0961 5.85917 21.1414C5.72001 21.17 5.56725 21.2014 5.39447 21.2341C4.98496 21.3118 4.50673 21.3865 4.03233 21.3823C3.56115 21.3782 3.02633 21.2963 2.5449 21.0005C2.03793 20.6889 1.67257 20.1909 1.4834 19.5212C1.2786 18.7963 1.40286 18.1397 1.80347 17.6323C2.17048 17.1674 2.71232 16.899 3.22765 16.7421ZM3.00983 18.6618C2.94082 18.7492 2.88766 18.8654 2.96051 19.1233C3.049 19.4365 3.17972 19.5674 3.29918 19.6408C3.44417 19.7299 3.66613 19.7891 3.99399 19.792C4.31862 19.7949 4.68169 19.7428 5.06766 19.6696C5.18585 19.6472 5.31407 19.621 5.44463 19.5943C5.70005 19.5421 5.96442 19.4881 6.18015 19.457C6.27799 19.4429 6.38448 19.427 6.49798 19.4099C6.92188 19.3464 7.44363 19.2681 7.97865 19.2174C7.76693 19.0758 7.55502 18.9395 7.3492 18.8143C6.7972 18.4785 6.36556 18.2707 6.11486 18.2104C5.47263 18.0557 4.4589 18.0402 3.7082 18.2688C3.3324 18.3832 3.11243 18.5318 3.00983 18.6618ZM10.2604 20.9384C10.2602 20.9383 10.2577 20.9359 10.2535 20.9315C10.2585 20.9363 10.2606 20.9385 10.2604 20.9384Z" fill="#FF8EB4"/>
</mask>
<g mask="url(#mask0_816_3384)">
<path d="M30.9837 15.841C23.7391 18.3054 21.6782 17.078 16.0327 18.6428C10.3872 20.2076 4.4282 26.6786 8.51669 33.4664C12.6052 40.2543 23.4384 37.6071 27.0321 34.1878C30.6257 30.7685 32.3108 26.9405 39.5555 24.7499C46.8001 22.5593 55.4415 28.0718 64.3327 23.1428C73.2239 18.2138 72.8052 7.35195 67.8656 2.97068C62.9261 -1.41059 52.4145 1.57491 46.4555 5.14271C40.4964 8.7105 38.2283 13.3765 30.9837 15.841Z" fill="#FF8EB4"/>
</g>
</svg>
