<svg width="70" height="100" viewBox="0 0 70 100" fill="none" xmlns="http://www.w3.org/2000/svg">
<path d="M29.6044 75.4771C29.2672 71.3899 23.5345 67.3027 23.5345 67.3027L57.931 58.7878C57.931 58.7878 49.8377 65.2592 49.8377 75.4771C49.8377 85.6949 52.5355 89.1009 52.5355 93.8692C52.5355 98.6376 49.8377 100 47.8144 100C45.7911 100 42.4188 100 41.4072 93.8692C40.3955 87.7385 45.7911 79.5642 43.7677 75.4771C41.7444 71.3899 38.035 71.3899 36.0116 75.4771C33.9883 79.5642 37.0233 81.9484 37.0233 85.6949C37.0233 89.4415 35 91.1445 32.6394 91.4851C30.2789 91.8257 27.5811 90.4633 27.5811 85.6949C27.5811 80.9266 29.9417 79.5642 29.6044 75.4771Z" fill="#FED58D"/>
<ellipse cx="35" cy="35.1515" rx="35" ry="35.1515" fill="#FED58D"/>
<path d="M33.5099 26.6645C34.3048 25.7765 35.6952 25.7765 36.4901 26.6645L36.6245 26.8146C37.0297 27.2672 37.6185 27.5111 38.225 27.4776L38.4262 27.4665C39.6162 27.4007 40.5993 28.3838 40.5335 29.5738L40.5224 29.775C40.4889 30.3815 40.7328 30.9703 41.1854 31.3755L41.3355 31.5099C42.2235 32.3048 42.2235 33.6952 41.3355 34.4901L41.1854 34.6245C40.7328 35.0297 40.4889 35.6185 40.5224 36.225L40.5335 36.4262C40.5993 37.6162 39.6162 38.5993 38.4262 38.5335L38.225 38.5224C37.6185 38.4889 37.0297 38.7328 36.6245 39.1854L36.4901 39.3355C35.6952 40.2235 34.3048 40.2235 33.5099 39.3355L33.3755 39.1854C32.9703 38.7328 32.3815 38.4889 31.775 38.5224L31.5738 38.5335C30.3838 38.5993 29.4007 37.6162 29.4665 36.4262L29.4776 36.225C29.5111 35.6185 29.2672 35.0297 28.8146 34.6245L28.6645 34.4901C27.7765 33.6952 27.7765 32.3048 28.6645 31.5099L28.8146 31.3755C29.2672 30.9703 29.5111 30.3815 29.4776 29.775L29.4665 29.5738C29.4007 28.3838 30.3838 27.4007 31.5738 27.4665L31.775 27.4776C32.3815 27.5111 32.9703 27.2672 33.3755 26.8146L33.5099 26.6645Z" stroke="#73562C" stroke-width="2"/>
<path d="M38 32L34.4 35L32 33" stroke="#73562C" stroke-width="2" stroke-linecap="round" stroke-linejoin="round"/>
<path d="M31.0002 39.0077L31 45L35 42.5L39 45L39.0002 39" stroke="#73562C" stroke-width="2" stroke-linecap="round" stroke-linejoin="round"/>
</svg>
