<svg width="70" height="100" viewBox="0 0 70 100" fill="none" xmlns="http://www.w3.org/2000/svg">
<path d="M29.6045 75.4771C29.2672 71.3899 23.5345 67.3027 23.5345 67.3027L57.931 58.7878C57.931 58.7878 49.8377 65.2592 49.8377 75.4771C49.8377 85.6949 52.5355 89.1009 52.5355 93.8692C52.5355 98.6376 49.8377 100 47.8144 100C45.7911 100 42.4189 100 41.4072 93.8692C40.3955 87.7385 45.7911 79.5642 43.7677 75.4771C41.7444 71.3899 38.035 71.3899 36.0117 75.4771C33.9883 79.5642 37.0233 81.9484 37.0233 85.6949C37.0233 89.4415 35 91.1445 32.6394 91.4851C30.2789 91.8257 27.5811 90.4633 27.5811 85.6949C27.5811 80.9266 29.9417 79.5642 29.6045 75.4771Z" fill="#FED58D"/>
<ellipse cx="35" cy="35.1515" rx="35" ry="35.1515" fill="#FED58D"/>
<path d="M35 44C35 44 26 38.9875 26 32.9723C26 26.9572 33 26.456 35 31.1622C37 26.456 44 26.9572 44 32.9723C44 38.9875 35 44 35 44Z" stroke="#73562C" stroke-width="2" stroke-linecap="round" stroke-linejoin="round"/>
</svg>
