<svg width="70" height="100" viewBox="0 0 70 100" fill="none" xmlns="http://www.w3.org/2000/svg">
<path d="M29.6045 75.4771C29.2672 71.3899 23.5345 67.3027 23.5345 67.3027L57.9311 58.7878C57.9311 58.7878 49.8377 65.2592 49.8377 75.4771C49.8377 85.6949 52.5355 89.1009 52.5355 93.8692C52.5355 98.6376 49.8377 100 47.8144 100C45.7911 100 42.4189 100 41.4072 93.8692C40.3955 87.7385 45.7911 79.5642 43.7678 75.4771C41.7444 71.3899 38.035 71.3899 36.0117 75.4771C33.9883 79.5642 37.0233 81.9484 37.0233 85.6949C37.0233 89.4415 35 91.1445 32.6395 91.4851C30.2789 91.8257 27.5811 90.4633 27.5811 85.6949C27.5811 80.9266 29.9417 79.5642 29.6045 75.4771Z" fill="#FED58D"/>
<ellipse cx="35" cy="35.1515" rx="35" ry="35.1515" fill="#FED58D"/>
<path d="M27 45V34" stroke="#73562C" stroke-width="2" stroke-linecap="round" stroke-linejoin="round"/>
<path d="M43 45V34" stroke="#73562C" stroke-width="2" stroke-linecap="round" stroke-linejoin="round"/>
<path d="M27 45L43 45" stroke="#73562C" stroke-width="2" stroke-linecap="round" stroke-linejoin="round"/>
<path d="M33 39C33 37.8954 33.8954 37 35 37V37C36.1046 37 37 37.8954 37 39V45H33V39Z" stroke="#73562C" stroke-width="2"/>
<path d="M24.9418 30.4303L26.4174 27.971C26.7788 27.3686 27.4299 27 28.1324 27H41.8676C42.5701 27 43.2212 27.3686 43.5826 27.971L45.0582 30.4303C45.5913 31.3188 45.3575 32.4673 44.5195 33.0767L44.4263 33.1445C43.725 33.6545 42.775 33.6545 42.0737 33.1445L40.5 32L38.9263 33.1445C38.225 33.6545 37.275 33.6545 36.5737 33.1445L35 32L33.4263 33.1445C32.725 33.6545 31.775 33.6545 31.0737 33.1445L29.5 32L27.9263 33.1445C27.225 33.6545 26.275 33.6545 25.5737 33.1445L25.4805 33.0767C24.6425 32.4673 24.4087 31.3188 24.9418 30.4303Z" stroke="#73562C" stroke-width="2" stroke-linecap="round" stroke-linejoin="round"/>
</svg>
