<svg width="70" height="100" viewBox="0 0 70 100" fill="none" xmlns="http://www.w3.org/2000/svg">
<path d="M29.6044 75.4771C29.2672 71.3899 23.5345 67.3027 23.5345 67.3027L57.931 58.7878C57.931 58.7878 49.8377 65.2592 49.8377 75.4771C49.8377 85.6949 52.5355 89.1009 52.5355 93.8692C52.5355 98.6376 49.8377 100 47.8144 100C45.7911 100 42.4189 100 41.4072 93.8692C40.3955 87.7385 45.7911 79.5642 43.7677 75.4771C41.7444 71.3899 38.035 71.3899 36.0116 75.4771C33.9883 79.5642 37.0233 81.9484 37.0233 85.6949C37.0233 89.4415 35 91.1445 32.6394 91.4851C30.2789 91.8257 27.5811 90.4633 27.5811 85.6949C27.5811 80.9266 29.9417 79.5642 29.6044 75.4771Z" fill="#FED58D"/>
<ellipse cx="35" cy="35.1515" rx="35" ry="35.1515" fill="#FED58D"/>
<path d="M42 38C42.2652 38 42.5196 37.8947 42.7071 37.7072C42.8946 37.5196 43 37.2653 43 37V35C43 34.7348 42.8946 34.4805 42.7071 34.2929C42.5196 34.1054 42.2652 34 42 34H28C27.7348 34 27.4804 34.1054 27.2929 34.2929C27.1054 34.4805 27 34.7348 27 35V37C27 37.2653 27.1054 37.5196 27.2929 37.7072C27.4804 37.8947 27.7348 38 28 38M42 38H28M42 38L40 46H30L28 38M34.964 30.97C34.964 30.97 31.889 31.276 30.279 29.935C28.669 28.593 29.036 26.03 29.036 26.03C29.036 26.03 32.111 25.724 33.722 27.065C35.332 28.407 34.964 30.97 34.964 30.97ZM35.036 30.97C35.036 30.97 38.111 31.276 39.721 29.935C41.331 28.593 40.964 26.03 40.964 26.03C40.964 26.03 37.889 25.724 36.279 27.065C34.669 28.407 35.036 30.97 35.036 30.97Z" stroke="#73562C" stroke-width="2" stroke-linecap="round" stroke-linejoin="round"/>
</svg>
