<svg width="102" height="101" viewBox="0 0 102 101" fill="none" xmlns="http://www.w3.org/2000/svg">
<path d="M93.2193 63.3157C96.3989 64.249 99.7713 62.4294 100.317 59.161C101.376 52.8209 101.206 46.3168 99.7946 40.0074C97.9451 31.7399 94.0252 24.0779 88.4029 17.7406C82.7806 11.4032 75.6402 6.59841 67.652 3.77706C59.6637 0.955702 51.0896 0.210351 42.7343 1.61097C34.3791 3.01158 26.5167 6.51223 19.8852 11.7843C13.2536 17.0564 8.07045 23.9271 4.8221 31.7514C1.57374 39.5758 0.36674 48.0972 1.3144 56.5159C2.03761 62.9407 3.9976 69.1448 7.06626 74.7929C8.64823 77.7046 12.4297 78.325 15.1311 76.4058C17.8325 74.4867 18.4177 70.7556 16.9472 67.7861C14.9945 63.8428 13.7347 59.5764 13.2391 55.1736C12.5189 48.7754 13.4362 42.2991 15.9049 36.3526C18.3737 30.4061 22.3129 25.1844 27.3529 21.1776C32.3928 17.1708 38.3682 14.5103 44.7182 13.4458C51.0682 12.3814 57.5846 12.9478 63.6556 15.0921C69.7267 17.2363 75.1534 20.888 79.4264 25.7043C83.6993 30.5207 86.6784 36.3438 88.084 42.6271C89.0513 46.9509 89.2516 51.3949 88.6916 55.7594C88.2698 59.0461 90.0397 62.3824 93.2193 63.3157Z" fill="#FBD0E4"/>
<path d="M93.2193 63.3157C96.3989 64.249 99.7713 62.4294 100.317 59.161C101.562 51.709 101.106 44.0444 98.9496 36.7493C96.2241 27.529 90.898 19.29 83.6094 13.0196C76.3208 6.74908 67.3789 2.71303 57.855 1.39497C48.3311 0.076914 38.6291 1.53275 29.9115 5.58806C21.1939 9.64337 13.8303 16.1262 8.70317 24.2597C3.576 32.3932 0.902627 41.8325 1.00335 51.4467C1.10407 61.0609 3.97463 70.4421 9.27108 78.4665C13.4616 84.8153 19.0302 90.1017 25.5317 93.9501C28.3833 95.638 31.9477 94.2308 33.2821 91.1976C34.6165 88.1645 33.2049 84.6615 30.4193 82.8668C26.0023 80.0209 22.2046 76.2775 19.2862 71.856C15.2609 65.7575 13.0792 58.6278 13.0027 51.321C12.9261 44.0142 14.9579 36.8403 18.8546 30.6589C22.7512 24.4774 28.3475 19.5505 34.9729 16.4684C41.5983 13.3864 48.9718 12.28 56.2099 13.2817C63.4481 14.2834 70.244 17.3508 75.7833 22.1164C81.3226 26.8819 85.3705 33.1435 87.4419 40.151C88.9436 45.2314 89.3603 50.5477 88.6916 55.7594C88.2698 59.0461 90.0397 62.3824 93.2193 63.3157Z" fill="#FBD0E4" fill-opacity="0.4"/>
<path d="M93.2193 63.3157C96.3989 64.249 99.7713 62.4294 100.317 59.161C101.781 50.4016 100.89 41.3713 97.6827 33.0125C93.7562 22.7783 86.5752 14.118 77.245 8.36435C67.9148 2.61072 56.9523 0.0826309 46.0447 1.16914C35.137 2.25564 24.8886 6.89653 16.8767 14.3776C8.86478 21.8587 3.53329 31.7653 1.70273 42.5731C-0.127829 53.3808 1.64397 64.4905 6.74547 74.1927C11.847 83.8949 19.9955 91.6518 29.9369 96.2696C38.0565 100.041 47.0047 101.548 55.8437 100.688C59.1418 100.367 61.1881 97.1268 60.4746 93.8909C59.7611 90.6549 56.5537 88.6608 53.2458 88.8566C46.9987 89.2263 40.7239 88.0488 34.9922 85.3864C27.4367 81.8768 21.2439 75.9816 17.3667 68.608C13.4896 61.2343 12.143 52.7909 13.5342 44.577C14.9255 36.3632 18.9774 28.8341 25.0664 23.1485C31.1555 17.4629 38.9443 13.9358 47.2341 13.11C55.5239 12.2843 63.8554 14.2056 70.9463 18.5784C78.0373 22.9512 83.4948 29.533 86.479 37.311C88.7428 43.2115 89.488 49.5523 88.6916 55.7594C88.2698 59.0461 90.0397 62.3824 93.2193 63.3157Z" fill="#FBD0E4" fill-opacity="0.35"/>
<path d="M93.2193 63.3157C96.3989 64.249 99.7713 62.4294 100.317 59.161C101.937 49.4648 100.669 39.4568 96.5994 30.4108C91.7057 19.5319 83.0838 10.7611 72.2903 5.6819C61.4968 0.602657 49.243 -0.450316 37.7412 2.71308C26.2394 5.87648 16.2476 13.0478 9.56963 22.9323C2.8917 32.8168 -0.0322811 44.7631 1.3256 56.6145C2.68348 68.4658 8.23374 79.4412 16.9743 87.5591C25.7149 95.677 37.0698 100.403 48.989 100.882C58.9001 101.281 68.6583 98.7232 77.0493 93.6017C79.8778 91.8753 80.3074 88.0672 78.2548 85.4658C76.2023 82.8643 72.4465 82.4675 69.5546 84.0855C63.4661 87.4919 56.5198 89.1759 49.4718 88.8922C40.4132 88.5274 31.7835 84.936 25.1406 78.7664C18.4978 72.5968 14.2796 64.2555 13.2476 55.2485C12.2156 46.2415 14.4378 37.1623 19.5131 29.65C24.5883 22.1378 32.1821 16.6876 40.9234 14.2834C49.6648 11.8793 58.9777 12.6795 67.1808 16.5397C75.3838 20.4 81.9365 27.0658 85.6557 35.3337C88.5494 41.7665 89.5795 48.8395 88.6916 55.7594C88.2698 59.0461 90.0397 62.3824 93.2193 63.3157Z" fill="#FBD0E4" fill-opacity="0.25"/>
<path d="M93.2193 63.3157C96.3989 64.249 99.7713 62.4294 100.317 59.161C102.074 48.6454 100.43 37.784 95.5363 28.1947C89.7286 16.8146 79.7849 8.08948 67.7463 3.81049C55.7078 -0.46851 42.4879 0.0233075 30.8006 5.18498C19.1133 10.3466 9.84527 19.7865 4.89922 31.5667C-0.0468312 43.3469 -0.295654 56.5736 4.20382 68.5315C8.70329 80.4893 17.6097 90.2711 29.0946 95.8687C40.5795 101.466 53.7715 102.455 65.9625 98.6318C76.235 95.4103 85.14 88.9781 91.4167 80.3603C93.3675 77.6817 92.3049 73.9999 89.412 72.3836C86.5192 70.7674 82.8981 71.8404 80.8471 74.4431C76.14 80.4162 69.7157 84.8785 62.3716 87.1817C53.1065 90.0873 43.0806 89.3359 34.352 85.0817C25.6235 80.8276 18.8546 73.3934 15.435 64.3054C12.0154 55.2174 12.2046 45.1651 15.9636 36.2122C19.7226 27.2593 26.7662 20.0849 35.6486 16.1621C44.5309 12.2392 54.5781 11.8654 63.7273 15.1175C72.8766 18.3695 80.4339 25.0006 84.8477 33.6495C88.3464 40.5051 89.6595 48.2163 88.6916 55.7594C88.2698 59.0461 90.0397 62.3824 93.2193 63.3157Z" fill="#FBD0E4" fill-opacity="0.2"/>
<path d="M59.683 100.163C32.4883 104.958 6.55537 86.8 1.76021 59.6053C-3.03495 32.4106 15.1235 6.47769 42.3182 1.68253C69.5129 -3.11263 95.4458 15.0458 100.241 42.2405C105.036 69.4352 86.8777 95.3681 59.683 100.163ZM44.402 13.5002C23.734 17.1445 9.93358 36.8536 13.5779 57.5215C17.2222 78.1895 36.9313 91.9899 57.5992 88.3456C78.2672 84.7013 92.0676 64.9923 88.4233 44.3243C84.779 23.6563 65.07 9.8559 44.402 13.5002Z" fill="#FBD0E4" fill-opacity="0.15"/>
</svg>
