<svg width="54" height="47" viewBox="0 0 54 47" fill="none" xmlns="http://www.w3.org/2000/svg">
<path fill-rule="evenodd" clip-rule="evenodd" d="M22.6956 2.47368C24.6086 -0.824559 29.3914 -0.824564 31.3045 2.47368L52.8267 39.5789C54.7398 42.8772 52.3484 47 48.5222 47H5.47776C1.65158 47 -0.739771 42.8772 1.17332 39.5789L22.6956 2.47368ZM27 4.94737L5.47776 42.0526H48.5222L27 4.94737ZM30.7275 34.6314C30.7275 36.6807 29.0585 38.342 26.9997 38.342C24.9409 38.342 23.2719 36.6807 23.2719 34.6314C23.2719 32.5822 24.9409 30.9209 26.9997 30.9209C29.0585 30.9209 30.7275 32.5822 30.7275 34.6314ZM24.5145 24.7368C24.5145 26.103 25.6272 27.2105 26.9997 27.2105C28.3722 27.2105 29.4849 26.103 29.4849 24.7368V17.3158C29.4849 15.9496 28.3722 14.8421 26.9997 14.8421C25.6272 14.8421 24.5145 15.9496 24.5145 17.3158V24.7368Z" fill="#FF8EB4"/>
</svg>
