<svg width="35" height="42" viewBox="0 0 35 42" fill="none" xmlns="http://www.w3.org/2000/svg">
<path d="M28.3955 17.4771C28.7328 13.3899 34.4655 9.30274 34.4655 9.30274L0.0689468 0.787842C0.0689468 0.787842 8.16226 7.25917 8.16226 17.4771C8.16226 27.6949 5.46449 31.1009 5.46449 35.8692C5.46449 40.6376 8.16226 42 10.1856 42C12.2089 42 15.5811 42 16.5928 35.8692C17.6045 29.7385 12.2089 21.5642 14.2322 17.4771C16.2556 13.3899 19.965 13.3899 21.9883 17.4771C24.0117 21.5642 20.9767 23.9484 20.9767 27.6949C20.9767 31.4415 23 33.1445 25.3605 33.4851C27.7211 33.8257 30.4189 32.4633 30.4189 27.6949C30.4189 22.9266 28.0583 21.5642 28.3955 17.4771Z" fill="#FFB5C6"/>
</svg>
