<svg width="35" height="42" viewBox="0 0 35 42" fill="none" xmlns="http://www.w3.org/2000/svg">
<path d="M6.06998 16.6892C5.73276 12.6021 0 8.5149 0 8.5149L34.3966 0C34.3966 0 26.3033 6.47133 26.3033 16.6892C26.3033 26.9071 29.001 30.3131 29.001 35.0814C29.001 39.8497 26.3033 41.2121 24.2799 41.2121C22.2566 41.2121 18.8844 41.2121 17.8727 35.0814C16.8611 28.9507 22.2566 20.7764 20.2333 16.6892C18.2099 12.6021 14.5005 12.6021 12.4772 16.6892C10.4539 20.7764 13.4889 23.1605 13.4889 26.9071C13.4889 30.6537 11.4655 32.3566 9.10497 32.6972C6.74443 33.0378 4.04666 31.6754 4.04666 26.9071C4.04666 22.1387 6.4072 20.7764 6.06998 16.6892Z" fill="#FFB5C6"/>
</svg>
