<svg width="1440" height="545" viewBox="0 0 1440 545" fill="none" xmlns="http://www.w3.org/2000/svg">
<mask id="mask0_2_10" style="mask-type:alpha" maskUnits="userSpaceOnUse" x="0" y="0" width="1440" height="545">
<path d="M1440 11.5057C1440 11.5057 1348.62 94.3499 1115 94.3499C979.853 94.3499 837 12.8589 773 12.8589C738.348 12.8589 737 53.4899 737 79.484V185.46C737 267.941 740.5 283.51 704 299.434C676.5 311.431 612.5 307.432 612.5 307.432C554 298.434 559 296.435 520.5 296.435C482 296.435 453.5 317.93 432.5 317.93C411.5 317.93 398.737 289.178 380.5 289.436C369.986 289.585 364.5 289.436 355.5 299.434C346.5 309.432 365.5 326.928 364.5 339.425C363.5 351.922 355.5 360.42 345.5 360.42C335.5 360.42 326.5 355.421 324 341.424C321.5 327.428 330 324.928 330 309.432C330 299.9 324 290.936 316 289.436C308 287.937 288 289.436 284 309.432C280 329.427 290 339.425 293.5 360.42C297 381.415 281.5 392.093 265 393.413C248.5 394.732 235.5 377.669 235.5 363.919C235.5 338.925 244 333.117 244 309.432C244 272.94 241.687 267.941 235.5 210.454C229.313 152.967 250.5 24.9965 208.5 12.8589C171.5 -10.4955 0 94.3499 0 94.3499V527.466C0 527.466 303.648 413.646 519 412.968C734.352 412.291 876.875 527.466 1062.5 527.466C1248.12 527.466 1286.5 512.385 1440 467.895V11.5057Z" fill="#D2D2D2"/>
</mask>
<g mask="url(#mask0_2_10)">
<path d="M1440 15.5057C1440 15.5057 1348.62 98.3499 1115 98.3499C979.853 98.3499 837 16.8589 773 16.8589C738.348 16.8589 737 57.4899 737 83.484V189.46C737 271.941 740.5 287.51 704 303.434C676.5 315.431 612.5 311.432 612.5 311.432C554 302.434 559 300.435 520.5 300.435C482 300.435 453.5 321.93 432.5 321.93C411.5 321.93 398.737 293.178 380.5 293.436C369.986 293.585 364.5 293.436 355.5 303.434C346.5 313.432 365.5 330.928 364.5 343.425C363.5 355.922 355.5 364.42 345.5 364.42C335.5 364.42 326.5 359.421 324 345.424C321.5 331.428 330 328.928 330 313.432C330 303.9 324 294.936 316 293.436C308 291.937 288 293.436 284 313.432C280 333.427 290 343.425 293.5 364.42C297 385.415 281.5 396.093 265 397.413C248.5 398.732 235.5 381.669 235.5 367.919C235.5 342.925 244 337.117 244 313.432C244 276.94 241.687 271.941 235.5 214.454C229.313 156.967 250.5 28.9965 208.5 16.8589C171.5 -6.49548 0 98.3499 0 98.3499V531.466C0 531.466 303.648 417.646 519 416.968C734.352 416.291 876.875 531.466 1062.5 531.466C1248.12 531.466 1286.5 516.385 1440 471.895V15.5057Z" fill="#D2D2D2"/>
</g>
</svg>
