<svg width="1441" height="461" viewBox="0 0 1441 461" fill="none" xmlns="http://www.w3.org/2000/svg">
<mask id="mask0_1_4" style="mask-type:alpha" maskUnits="userSpaceOnUse" x="0" y="0" width="1441" height="462">
<path d="M0.0219727 60.2818C0.0219727 60.2818 135.522 -6.0042 287.522 10.0026C439.522 26.0094 500.022 71.5691 614.522 169.675C729.022 267.781 853.522 320.838 977.522 320.838C1101.52 320.838 1231.02 290.806 1318.02 209.218C1405.02 127.63 1440.02 10.9931 1440.02 10.9931V461.509C1440.02 461.509 873.522 385.184 550.022 385.184C226.522 385.184 0.0219727 461.509 0.0219727 461.509V60.2818Z" fill="#D2D2D2"/>
</mask>
<g mask="url(#mask0_1_4)">
<path d="M0.0219727 56.2818C0.0219727 56.2818 135.522 -10.0042 287.522 6.00258C439.522 22.0094 500.022 67.5691 614.522 165.675C729.022 263.781 853.522 316.838 977.522 316.838C1101.52 316.838 1231.02 286.806 1318.02 205.218C1405.02 123.63 1440.02 6.9931 1440.02 6.9931V457.509C1440.02 457.509 873.522 381.184 550.022 381.184C226.522 381.184 0.0219727 457.509 0.0219727 457.509V56.2818Z" fill="#D2D2D2"/>
</g>
</svg>
